PathFileType	4	(X/Y/Z)	/Users/visionmauri/Downloads/Videos/OAW03-top_Sports2D/OAW03-top_Sports2D_m_person00.trc
DataRate	CameraRate	NumFrames	NumMarkers	Units	OrigDataRate	OrigDataStartFrame	OrigNumFrames
30.0	30.0	11	22	m	30.0	1609	2146
Frame#	Time	Hip			RHip			RKnee			RAnkle			RBigToe			RSmallToe			RHeel			LHip			LKnee			LAnkle			LBigToe			LSmallToe			LHeel			Neck			Head			Nose			RShoulder			RElbow			RWrist			LShoulder			LElbow			LWrist			
		X1	Y1	Z1	X2	Y2	Z2	X3	Y3	Z3	X4	Y4	Z4	X5	Y5	Z5	X6	Y6	Z6	X7	Y7	Z7	X8	Y8	Z8	X9	Y9	Z9	X10	Y10	Z10	X11	Y11	Z11	X12	Y12	Z12	X13	Y13	Z13	X14	Y14	Z14	X15	Y15	Z15	X16	Y16	Z16	X17	Y17	Z17	X18	Y18	Z18	X19	Y19	Z19	X20	Y20	Z20	X21	Y21	Z21	X22	Y22	Z22
1609	53.658337218337216	1.9192079220322176	0.5264589123666505	0.0301	1.8964649538959262	0.48332414265515616	0.0301	2.0545400106980582	0.3617405800221469	0.129	2.190666668912353	0.27923107365564287	0.023	2.262745004591721	0.24186230355212496	0.2179	2.242781871247073	0.22407024115717064	0.1804	2.2085946062213035	0.2696001643489915	-0.0119	1.954300459371116	0.562928839815075	0.0301	2.105123145546635	0.4386402922318132	0.129	2.237453169523586	0.32448961650462743	0.023	2.2956936516994473	0.27258948536530403	0.2179	2.3080444199368517	0.30018225203403515	0.1804	2.2525276238970826	0.30661607338304925	-0.0119	1.6727980022933953	0.7092635774588909	0.0008	1.5712915194861112	0.7952693989250936	0.0655	1.653055123197794	0.7333976214220321	0.1076	1.6364506626723714	0.61697540233074	-0.01275	1.7477669094080357	0.48404278056824857	0.0702	1.8526686488359512	0.39478042089507875	0.1076	1.7521589176368122	0.7704894468186861	-0.01275	1.9061388576230227	0.7037934593551526	0.0702	2.023199397795197	0.6343563418073394	0.1076
1610	53.69168609168609	1.9217540375801736	0.5259310033817108	0.0301	1.900714428319338	0.4807090254033132	0.0301	2.0604306144704174	0.3569024517834677	0.129	2.191543189790895	0.2803468725669178	0.023	2.2620173464088156	0.24042539500991922	0.2179	2.2423077286311397	0.2240238966661148	0.1804	2.210680358290642	0.27020372931483677	-0.0119	1.9586137517847841	0.5622351267207634	0.0301	2.113123099581524	0.4338777762997719	0.129	2.249797046001413	0.3148177783075842	0.023	2.3043984348415867	0.26637470438650324	0.2179	2.3175071553570614	0.29193811249092233	0.1804	2.2654798067080297	0.2944947620353956	-0.0119	1.675076058585419	0.7090086733641573	0.0008	1.5704039732545427	0.7964591096752133	0.0655	1.6543445493241988	0.7348694797601782	0.1076	1.6397429070582736	0.614651894200152	-0.01275	1.74800227488904	0.48143863916325597	0.0702	1.8538280265692229	0.39499175102540707	0.1076	1.7558577361510586	0.7680146162058588	-0.01275	1.9085167808478776	0.7029527901002086	0.0702	2.02912643542639	0.6400237720278089	0.1076
1611	53.725034965034965	1.9266017718091628	0.5232706417348875	0.0301	1.9059359236495845	0.47662404857703955	0.0301	2.065519473744907	0.3525373094591993	0.129	2.1923543140717605	0.28192372266976634	0.023	2.2609770974079586	0.23894119202025088	0.2179	2.2396369542336214	0.22334169564325773	0.1804	2.2132987111633278	0.2717891151630214	-0.0119	1.964450225741288	0.5598831201319828	0.0301	2.1204950998549665	0.4303748487949293	0.129	2.2572189937522666	0.3092126452431864	0.023	2.3095257061970593	0.2626922933230294	0.2179	2.322770478815225	0.2869481479781567	0.1804	2.272509084323322	0.28695728006209353	-0.0119	1.6800250668402126	0.7065684332276064	0.0008	1.5746868784857941	0.793748644004756	0.0655	1.6595762271168883	0.7322808996324114	0.1076	1.6446901221281176	0.6105631103353611	-0.01275	1.7505633301476748	0.4788252498815216	0.0702	1.8570807222557189	0.394395656825613	0.1076	1.761941328173113	0.765051652919803	-0.01275	1.9114276182996595	0.7013516569435013	0.0702	2.0348476335339596	0.6444562161094713	0.1076
1612	53.758383838383835	1.9325027117280482	0.520348895238343	0.0301	1.910954108103962	0.4730986008680628	0.0301	2.0673304247819893	0.3499872956551518	0.129	2.1933331749947946	0.2832293730228637	0.023	2.2596456237985674	0.23812720276940844	0.2179	2.2365460990748227	0.2228292220152703	0.1804	2.2155305904105935	0.27242298432780043	-0.0119	1.9703620768496592	0.5572655920913534	0.0301	2.125227038574547	0.42858759666827345	0.129	2.2612389249559577	0.3059560976540848	0.023	2.311055262111146	0.25988466364382773	0.2179	2.324899524178108	0.2842227810294451	0.1804	2.2770649033439945	0.28214346495727494	-0.0119	1.686601668659284	0.7033792442227063	0.0008	1.5819933020331483	0.7898796370935978	0.0655	1.663823180867036	0.7304429286963531	0.1076	1.6506669152367532	0.6063209778488257	-0.01275	1.7546311648221253	0.4762074040704265	0.0702	1.8620408083033824	0.3931775616823013	0.1076	1.7693181261640205	0.7628535918001554	-0.01275	1.915782751292148	0.7001379410475604	0.0702	2.0408811062199437	0.6478141136771701	0.1076
1613	53.79173271173271	1.9374446274047499	0.5180121240477439	0.0301	1.914837623242789	0.47083298497652676	0.0301	2.0666846286302825	0.3481120784610372	0.129	2.1943172656703425	0.2836923731388773	0.023	2.2584579645773575	0.23787471809082616	0.2179	2.2350818717720786	0.22335792028771972	0.1804	2.216832263029556	0.2714821969614394	-0.0119	1.9750807939247474	0.5547691618081864	0.0301	2.1282604905909004	0.42666734354502767	0.129	2.2641746165164296	0.30213603925393684	0.023	2.3118274756869086	0.2553084428395902	0.2179	2.326616188065177	0.28004761501447023	0.1804	2.2818385573780886	0.27713355018143837	-0.0119	1.6919702186535055	0.7020226087116106	0.0008	1.5879588323928941	0.7885953721515038	0.0655	1.6658683571552173	0.730946074325961	0.1076	1.6565100512398883	0.6042544646490657	-0.01275	1.7583388800883895	0.47415262772494493	0.0702	1.8664150125100472	0.3922165641847581	0.1076	1.7762744697273125	0.7619739335422772	-0.01275	1.9214495545021408	0.7000417128862144	0.0702	2.0475463354978998	0.6512659663962258	0.1076
1614	53.825081585081584	1.9418160809939522	0.5151415031476395	0.0301	1.9181386299522247	0.46906332820806146	0.0301	2.0664131434178743	0.3453736677022522	0.129	2.1947598255533625	0.2832615415310477	0.023	2.2577268243206707	0.23676421256561195	0.2179	2.235027482946516	0.22412795536275273	0.1804	2.2165192792403663	0.2712544233491056	-0.0119	1.9786938048753275	0.551912224571908	0.0301	2.1312073616165943	0.42248651268286375	0.129	2.2685757990885005	0.29521549057694113	0.023	2.3163464254490265	0.2471821597716651	0.2179	2.331132632137269	0.27177561608674355	0.1804	2.287654979778524	0.2701183615962909	-0.0119	1.6966897435134616	0.7018885336582162	0.0008	1.5918485165921896	0.7894259308930143	0.0655	1.6717091998564073	0.7284780079020792	0.1076	1.661136992013091	0.6044475175927624	-0.01275	1.7609896869920876	0.4731079913824616	0.0702	1.8689038055670113	0.39138788506242905	0.1076	1.7819044597250588	0.7622571604126492	-0.01275	1.9274267080575556	0.7014059793279666	0.0702	2.0552801457028367	0.6550466750782707	0.1076
1615	53.858430458430455	1.9468538879581687	0.511489024992242	0.0301	1.9217399350346518	0.4670074197819722	0.0301	2.0679170256659125	0.3415975548415336	0.129	2.19422432415869	0.28277990585034957	0.023	2.2570459226690915	0.2346693729611682	0.2179	2.235132681061647	0.2240155668770688	0.1804	2.2136600093373366	0.27400754966120566	-0.0119	1.9826169310808606	0.5486951202352529	0.0301	2.134480697961899	0.4164079988103211	0.129	2.2745706165107524	0.28597389406111356	0.023	2.32538564501315	0.23696456390897805	0.2179	2.3386802706236334	0.2613402452438737	0.1804	2.293178002297825	0.26232329078913486	-0.0119	1.7022671561651186	0.7013476224031555	0.0008	1.5980734718483416	0.7882328439893485	0.0655	1.684855028189239	0.7205523089176213	0.1076	1.664606226573073	0.6051261826414813	-0.01275	1.763816182598243	0.4724424948328168	0.0702	1.8703935510204293	0.39031106177360964	0.1076	1.7863794476655748	0.7630887680022543	-0.01275	1.9334470957118473	0.7034982256004818	0.0702	2.0637290614752857	0.6584529285675601	0.1076
1616	53.89177933177933	1.9514466148765126	0.5089104910391763	0.0301	1.925346787362088	0.46464860463037216	0.0301	2.0700812420571757	0.3377493996697968	0.129	2.191929740264483	0.2837566095761997	0.023	2.256086499618259	0.2336211676997347	0.2179	2.2344896957791898	0.22349504762959496	0.1804	2.207604317798887	0.27966587322729525	-0.0119	1.9874860274065094	0.5462520383628482	0.0301	2.1376496757234693	0.41151536290205665	0.129	2.279601430392298	0.27837649594792013	0.023	2.334701862240811	0.2280585594647241	0.2179	2.346391964838785	0.252966359178551	0.1804	2.2964607037918885	0.2564725121844401	-0.0119	1.7074701198399183	0.7011284879659134	0.0008	1.6093403838752216	0.7839516837463084	0.0655	1.6989572802124655	0.7141540348663789	0.1076	1.6671567587991059	0.6054953982061738	-0.01275	1.7678100872073546	0.47179287911058876	0.0702	1.8721534283415058	0.3897053995595106	0.1076	1.7900441995348269	0.7641039744521041	-0.01275	1.93965607391557	0.7048062792914027	0.0702	2.071416866441015	0.6610956259058735	0.1076
1617	53.9251282051282	1.9537354601214159	0.508608669261433	0.0301	1.9278159369999355	0.46268040061933896	0.0301	2.0716525611720136	0.33471807894388206	0.129	2.1877833103665636	0.2854198148378331	0.023	2.2559745126345345	0.23479915353932945	0.2179	2.2332430474478726	0.22350108804202387	0.1804	2.199356254949469	0.285304794920428	-0.0119	1.991984788048788	0.5457693759186388	0.0301	2.1404040292116226	0.4102974149750335	0.129	2.281957844958395	0.27528155556436573	0.023	2.3399918262324384	0.22274751447692567	0.2179	2.3514307166991366	0.24887304298514343	0.1804	2.296942727920077	0.25400685924091054	-0.0119	1.7108320296511335	0.70257095205497	0.0008	1.621594071812349	0.7802844475233777	0.0655	1.7066699446293205	0.7152881186927952	0.1076	1.668218524666273	0.6062030855681914	-0.01275	1.7718281269007439	0.4719810583206344	0.0702	1.8745202333782922	0.3901370030293155	0.1076	1.7927226250308588	0.76570142298555	-0.01275	1.9451580342839812	0.7048362864045687	0.0702	2.077304992912123	0.6627635221544703	0.1076
1618	53.958477078477074	1.9549382570209566	0.5092678327982331	0.0301	1.9289868778677606	0.46196100599183115	0.0301	2.073399531568432	0.332700635494657	0.129	2.18384240742831	0.28425293162072296	0.023	2.257735208743411	0.2359344520942077	0.2179	2.2327499820722614	0.22335091617092317	0.1804	2.192025374863875	0.2865418290958102	-0.0119	1.9948578892154187	0.5470848550246097	0.0301	2.1431614948950997	0.41182647878761497	0.129	2.2826262323099065	0.27555808846358826	0.023	2.341206640111958	0.22099685743061045	0.2179	2.3532731663101605	0.24814669271117973	0.1804	2.2960839545593097	0.2540698219965085	-0.0119	1.7126428736881651	0.7048422453075868	0.0008	1.6282980142885795	0.7798796888409626	0.0655	1.7092489484023565	0.7192421614122809	0.1076	1.6677861642960141	0.6072654727588432	-0.01275	1.774293792559522	0.4733819542177631	0.0702	1.8772389201642827	0.3904999819289053	0.1076	1.7943635839631686	0.7681602816293623	-0.01275	1.948852145079301	0.7045285481482456	0.0702	2.082325381603995	0.6626440206360414	0.1076
1619	53.99182595182595	1.9579191417876962	0.5091295221975695	0.0301	1.9307937695719122	0.46247917712267556	0.0301	2.0767759244718067	0.3313277052877793	0.129	2.1825795432957475	0.2785386023213975	0.023	2.2608492035069343	0.23311877598600794	0.2179	2.2342190235281887	0.2205002514733635	0.1804	2.188846045261086	0.28121857285750806	-0.0119	1.9972829558642855	0.5486656677273244	0.0301	2.146985293046326	0.413342952890276	0.129	2.282891081553788	0.276505753255301	0.023	2.3411187562329774	0.22130909888429687	0.2179	2.35329958104756	0.24858225299368428	0.1804	2.2953431010154426	0.25485369609693875	-0.0119	1.7140711483319762	0.7057195379731082	0.0008	1.6286768142706987	0.7811581387268257	0.0655	1.711407063929015	0.7192221782830533	0.1076	1.6672518880699478	0.6078520899788452	-0.01275	1.7756094247792735	0.47499481579841984	0.0702	1.8800726496089688	0.38975291868473155	0.1076	1.7956788059919897	0.7708576846650007	-0.01275	1.9515282951898836	0.7046968466215796	0.0702	2.0880810313459444	0.6600617878293706	0.1076
